<?xml version="1.0" encoding="UTF-8" standalone="no"?>
<svg
   xmlns:dc="http://purl.org/dc/elements/1.1/"
   xmlns:cc="http://creativecommons.org/ns#"
   xmlns:rdf="http://www.w3.org/1999/02/22-rdf-syntax-ns#"
   xmlns:svg="http://www.w3.org/2000/svg"
   xmlns="http://www.w3.org/2000/svg"
   version="1.1"
   id="Layer_1"
   x="0px"
   y="0px"
   viewBox="0 0 506.8 506.8"
   style="enable-background:new 0 0 506.8 506.8;"
   xml:space="preserve"><metadata
   id="metadata53"><rdf:RDF><cc:Work
       rdf:about=""><dc:format>image/svg+xml</dc:format><dc:type
         rdf:resource="http://purl.org/dc/dcmitype/StillImage" /><dc:title></dc:title></cc:Work></rdf:RDF></metadata><defs
   id="defs51" />
<path
   style="fill:#BC3F2C;"
   d="M253.2,25.6c-125.6,0-227.6,102-227.6,227.6s102,227.6,227.6,227.6s227.6-102,227.6-227.6  S378.8,25.6,253.2,25.6z"
   id="path2" />
<path
   style="fill:#F4EFEF;"
   d="M414.4,118c-5.2-6.8-24.8-24.8-24.8-25.2c-38-32.4-86.4-50-136.4-50c-116,0-210.4,94.4-210.4,210.4  s94.4,210.4,210.4,210.4s210.4-94.4,210.4-210.4C463.6,206,446.8,159.6,414.4,118z"
   id="path4" />
<path
   d="M253.2,486.8C124.4,486.8,19.6,382,19.6,253.2S124.4,19.6,253.2,19.6s233.6,104.8,233.6,233.6S382,486.8,253.2,486.8z   M253.2,27.6c-124.4,0-225.6,101.2-225.6,225.6s101.2,225.6,225.6,225.6s225.6-101.2,225.6-225.6S377.6,27.6,253.2,27.6z"
   id="path6" />
<path
   d="M253.2,466.8c-118,0-213.6-96-213.6-213.6c0-118,96-213.6,213.6-213.6c50.8,0,100,18,138.4,50.8c1.6,1.6,2,4,0.4,5.6  s-4,2-5.6,0.4C349.2,64.8,302,47.2,253.2,47.2c-113.6,0-205.6,92.4-205.6,205.6c0,113.6,92.4,205.6,205.6,205.6  S458.8,366,458.8,252.8c0-48.4-17.2-95.2-48-132c-1.6-1.6-1.2-4.4,0.4-5.6c1.6-1.6,4.4-1.2,5.6,0.4c32,38.4,50,87.2,50,137.2  C467.2,371.2,371.2,466.8,253.2,466.8z"
   id="path8" />
<path
   d="M106.8,259.2H4c-2.4,0-4-1.6-4-4s1.6-4,4-4h102.8c2.4,0,4,1.6,4,4C110.8,257.2,108.8,259.2,106.8,259.2z"
   id="path10" />
<path
   d="M502.8,259.2H400c-2.4,0-4-1.6-4-4s1.6-4,4-4h102.8c2.4,0,4,1.6,4,4C506.8,257.2,504.8,259.2,502.8,259.2z"
   id="path12" />
<path
   d="M251.2,506.8c-2.4,0-4-1.6-4-4V400c0-2.4,1.6-4,4-4s4,1.6,4,4v102.8C255.2,504.8,253.6,506.8,251.2,506.8z"
   id="path14" />
<path
   d="M251.2,110.8c-2.4,0-4-1.6-4-4V4c0-2.4,1.6-4,4-4s4,1.6,4,4v102.8C255.2,108.8,253.6,110.8,251.2,110.8z"
   id="path16" />
<g
   id="g18">
</g>
<g
   id="g20">
</g>
<g
   id="g22">
</g>
<g
   id="g24">
</g>
<g
   id="g26">
</g>
<g
   id="g28">
</g>
<g
   id="g30">
</g>
<g
   id="g32">
</g>
<g
   id="g34">
</g>
<g
   id="g36">
</g>
<g
   id="g38">
</g>
<g
   id="g40">
</g>
<g
   id="g42">
</g>
<g
   id="g44">
</g>
<g
   id="g46">
</g>
<g
   id="g122"
   transform="translate(111.69914,123.06855)"><g
     id="g63">
	<path
   style="fill:#e2574c"
   d="m 52.506,0 h 175.017 c 9.661,0 17.502,7.832 17.502,17.502 v 245.024 c 0,10.212 -7.71,17.502 -17.502,17.502 -8.191,0 -70.269,-38.81 -78.758,-43.754 -8.497,-4.944 -8.628,-5.233 -17.502,0 -8.873,5.259 -70.409,43.754 -78.758,43.754 -9.915,0 -17.502,-7.027 -17.502,-17.502 V 17.502 C 35.004,7.832 42.845,0 52.506,0 Z"
   id="path55" />
	<path
   style="fill:#cb4e44"
   d="m 227.523,0 h -87.509 v 232.466 c 2.258,-0.018 4.419,1.278 8.751,3.807 8.453,4.927 70.086,43.448 78.618,43.728 h 0.411 c 9.661,-0.14 17.23,-7.359 17.23,-17.475 V 17.502 C 245.025,7.832 237.184,0 227.523,0 Z"
   id="path57" />
	<path
   style="fill:#efc75e"
   d="m 210.048,105.395 -46.038,-3.404 -23.995,-49.486 -24.266,49.486 -45.758,3.404 30.628,38.197 -8.751,48.9 48.147,-22.507 48.147,22.507 -8.908,-48.9 c -0.001,10e-4 30.794,-38.197 30.794,-38.197 z"
   id="path59" />
	<polygon
   style="fill:#d7b354"
   points="164.009,101.991 140.015,52.505 140.015,170.003 188.162,192.501 179.253,143.602 210.048,105.395 "
   id="polygon61" />
</g><g
     id="g65">
</g><g
     id="g67">
</g><g
     id="g69">
</g><g
     id="g71">
</g><g
     id="g73">
</g><g
     id="g75">
</g><g
     id="g77">
</g><g
     id="g79">
</g><g
     id="g81">
</g><g
     id="g83">
</g><g
     id="g85">
</g><g
     id="g87">
</g><g
     id="g89">
</g><g
     id="g91">
</g><g
     id="g93">
</g></g></svg>
